<svg width="18" height="18" viewBox="0 0 18 18" fill="none" xmlns="http://www.w3.org/2000/svg">
<path d="M16.3125 9C16.3125 13.0386 13.0386 16.3125 9 16.3125V18C13.9706 18 18 13.9706 18 9H16.3125ZM9 16.3125C4.96142 16.3125 1.6875 13.0386 1.6875 9H0C0 13.9706 4.02943 18 9 18V16.3125ZM1.6875 9C1.6875 4.96142 4.96142 1.6875 9 1.6875V0C4.02943 0 0 4.02943 0 9H1.6875ZM9 1.6875C13.0386 1.6875 16.3125 4.96142 16.3125 9H18C18 4.02943 13.9706 0 9 0V1.6875Z" fill="#595667"/>
<path d="M10.6875 6.75C10.6875 7.68195 9.93195 8.4375 9 8.4375V10.125C10.864 10.125 12.375 8.61401 12.375 6.75H10.6875ZM9 8.4375C8.06805 8.4375 7.3125 7.68195 7.3125 6.75H5.625C5.625 8.61401 7.13599 10.125 9 10.125V8.4375ZM7.3125 6.75C7.3125 5.81802 8.06805 5.0625 9 5.0625V3.375C7.13599 3.375 5.625 4.88604 5.625 6.75H7.3125ZM9 5.0625C9.93195 5.0625 10.6875 5.81802 10.6875 6.75H12.375C12.375 4.88604 10.864 3.375 9 3.375V5.0625Z" fill="#595667"/>
<path d="M2.94964 14.0847C2.65122 14.4425 2.69944 14.9747 3.05734 15.273C3.41524 15.5715 3.94729 15.5232 4.24571 15.1653L2.94964 14.0847ZM13.7554 15.1653C14.0538 15.5232 14.5859 15.5715 14.9437 15.273C15.3016 14.9747 15.3499 14.4425 15.0514 14.0847L13.7554 15.1653ZM4.24571 15.1653C5.38205 13.8025 7.08989 12.9375 9.00059 12.9375V11.25C6.56818 11.25 4.39286 12.3537 2.94964 14.0847L4.24571 15.1653ZM9.00059 12.9375C10.9112 12.9375 12.619 13.8025 13.7554 15.1653L15.0514 14.0847C13.6083 12.3537 11.433 11.25 9.00059 11.25V12.9375Z" fill="#595667"/>
</svg>
