<svg width="145" height="39" viewBox="0 0 145 39" fill="none" xmlns="http://www.w3.org/2000/svg">
<mask id="path-1-inside-1_52_2250" fill="white">
<path d="M5.84383 19.9346C5.4533 19.5441 5.4533 18.911 5.84383 18.5204L7.73155 16.6327C10.0747 14.2896 13.8737 14.2896 16.2168 16.6327L18.1046 18.5204C18.4951 18.911 18.4951 19.5441 18.1046 19.9346L16.2168 21.8224C13.8737 24.1655 10.0747 24.1655 7.73155 21.8224L5.84383 19.9346Z"/>
</mask>
<path d="M5.84383 19.9346C5.4533 19.5441 5.4533 18.911 5.84383 18.5204L7.73155 16.6327C10.0747 14.2896 13.8737 14.2896 16.2168 16.6327L18.1046 18.5204C18.4951 18.911 18.4951 19.5441 18.1046 19.9346L16.2168 21.8224C13.8737 24.1655 10.0747 24.1655 7.73155 21.8224L5.84383 19.9346Z" stroke="#3A3845" stroke-width="5" mask="url(#path-1-inside-1_52_2250)"/>
<mask id="path-2-inside-2_52_2250" fill="white">
<path d="M21.9322 19.9346C21.5417 19.5441 21.5417 18.911 21.9322 18.5204L23.8199 16.6327C26.1631 14.2896 29.9621 14.2896 32.3052 16.6327L34.1929 18.5204C34.5835 18.911 34.5835 19.5441 34.1929 19.9346L32.3052 21.8224C29.9621 24.1655 26.1631 24.1655 23.8199 21.8224L21.9322 19.9346Z"/>
</mask>
<path d="M21.9322 19.9346C21.5417 19.5441 21.5417 18.911 21.9322 18.5204L23.8199 16.6327C26.1631 14.2896 29.9621 14.2896 32.3052 16.6327L34.1929 18.5204C34.5835 18.911 34.5835 19.5441 34.1929 19.9346L32.3052 21.8224C29.9621 24.1655 26.1631 24.1655 23.8199 21.8224L21.9322 19.9346Z" stroke="#3A3845" stroke-width="5" mask="url(#path-2-inside-2_52_2250)"/>
<mask id="path-3-inside-3_52_2250" fill="white">
<path d="M19.311 5.0533C19.7015 4.66277 20.3346 4.66277 20.7252 5.0533L22.6129 6.94102C24.956 9.28417 24.956 13.0832 22.6129 15.4263L20.7252 17.314C20.3346 17.7046 19.7015 17.7046 19.311 17.314L17.4232 15.4263C15.0801 13.0832 15.0801 9.28417 17.4232 6.94103L19.311 5.0533Z"/>
</mask>
<path d="M19.311 5.0533C19.7015 4.66277 20.3346 4.66277 20.7252 5.0533L22.6129 6.94102C24.956 9.28417 24.956 13.0832 22.6129 15.4263L20.7252 17.314C20.3346 17.7046 19.7015 17.7046 19.311 17.314L17.4232 15.4263C15.0801 13.0832 15.0801 9.28417 17.4232 6.94103L19.311 5.0533Z" stroke="#3A3845" stroke-width="5" mask="url(#path-3-inside-3_52_2250)"/>
<mask id="path-4-inside-4_52_2250" fill="white">
<path d="M19.2055 20.3424C19.596 19.9518 20.2292 19.9518 20.6197 20.3424L22.5074 22.2301C24.8506 24.5732 24.8506 28.3722 22.5074 30.7154L20.6197 32.6031C20.2292 32.9936 19.596 32.9936 19.2055 32.6031L17.3178 30.7154C14.9746 28.3722 14.9746 24.5732 17.3178 22.2301L19.2055 20.3424Z"/>
</mask>
<path d="M19.2055 20.3424C19.596 19.9518 20.2292 19.9518 20.6197 20.3424L22.5074 22.2301C24.8506 24.5732 24.8506 28.3722 22.5074 30.7154L20.6197 32.6031C20.2292 32.9936 19.596 32.9936 19.2055 32.6031L17.3178 30.7154C14.9746 28.3722 14.9746 24.5732 17.3178 22.2301L19.2055 20.3424Z" stroke="#3A3845" stroke-width="5" mask="url(#path-4-inside-4_52_2250)"/>
<path d="M23.75 1.29785C24.8356 1.20771 25.7219 1.22654 26.5273 1.5127C27.0049 1.68235 27.3852 2.07688 27.9238 2.81738C28.3914 3.46029 29.0508 4.49559 30.0088 5.1709C31.051 5.90557 32.4546 6.40502 33.4277 6.81836C34.5624 7.30033 35.1618 7.67761 35.4062 8.08594C35.7581 8.67358 35.9434 9.41776 36.1162 10.4258C36.2784 11.3714 36.4328 12.5849 36.79 13.7646C37.1129 14.8308 37.7983 15.9554 38.2471 16.8018C38.7538 17.7576 39.0526 18.4992 39.0527 19.1631C39.0527 19.7842 38.7878 20.3518 38.2959 21.1279C37.8568 21.8207 37.1304 22.8096 36.79 23.9336C36.419 25.1589 36.3515 26.5641 36.2344 27.5889C36.1051 28.7195 35.915 29.5369 35.4697 30.1465C35.0282 30.751 34.3051 31.1861 33.2715 31.6602C32.338 32.0882 31.0325 32.5879 30.0088 33.3096C29.0673 33.9733 28.4119 34.9495 27.9434 35.5605C27.4143 36.2506 27.0289 36.6363 26.5273 36.8145C25.7219 37.1006 24.8356 37.1194 23.75 37.0293C22.7494 36.9462 21.4061 36.7422 20.1514 36.7422C18.8967 36.7422 17.5533 36.9462 16.5527 37.0293C15.4671 37.1194 14.5809 37.1006 13.7754 36.8145C13.0442 36.5547 12.4454 36.0908 11.7764 35.4551C11.1596 34.869 10.365 34.004 9.47852 33.334C8.61188 32.6791 7.53 32.133 6.74805 31.6777C5.89128 31.1789 5.2528 30.7212 4.83301 30.1465C4.3503 29.4857 4.08122 28.6086 3.85938 27.4883C3.65676 26.4651 3.4773 25.0906 3.12695 23.9336C2.80719 22.8776 2.226 21.9181 1.87012 21.2256C1.48359 20.4734 1.25 19.8619 1.25 19.1631C1.25014 18.4992 1.5489 17.7576 2.05566 16.8018C2.50441 15.9554 3.1898 14.8308 3.5127 13.7646C3.87951 12.5532 3.95041 11.3141 4.06543 10.4453C4.18834 9.51705 4.36649 8.81933 4.83301 8.18066C5.23894 7.62496 5.85618 7.20776 6.71289 6.74609C7.49309 6.32569 8.5898 5.81808 9.47852 5.14648C10.3844 4.46181 11.1798 3.5485 11.8008 2.9248C12.4777 2.24504 13.0676 1.76415 13.7754 1.5127C14.5809 1.22655 15.4671 1.20771 16.5527 1.29785C17.5533 1.38093 18.8967 1.58496 20.1514 1.58496C21.4061 1.58496 22.7494 1.38093 23.75 1.29785Z" stroke="#3A3845" stroke-width="2.5"/>
<path d="M72.2268 8.90332C72.3447 8.90331 72.4578 8.9593 72.5415 9.0591C72.6252 9.15889 72.6728 9.29442 72.6738 9.43619V28.7165C72.6738 28.8583 72.6273 28.9943 72.5443 29.095C72.4614 29.1957 72.3487 29.2529 72.2309 29.2542H70.0484C69.9305 29.2529 69.8179 29.1957 69.7349 29.095C69.652 28.9943 69.6054 28.8583 69.6054 28.7165V16.1746C69.4336 16.3425 69.2564 16.504 69.0739 16.659C68.5544 17.095 68.0269 17.4632 67.5155 17.8217C67.0041 18.1801 66.6659 18.4611 66.2632 18.7469C65.5093 19.2707 64.853 19.9753 64.3348 20.817C63.8167 21.6586 63.4479 22.6194 63.2512 23.6397C63.2291 23.7584 63.174 23.8645 63.0948 23.9403C63.0157 24.0161 62.9174 24.057 62.8163 24.0563H60.7345C60.6333 24.057 60.535 24.0161 60.4559 23.9403C60.3768 23.8645 60.3216 23.7584 60.2996 23.6397C60.1029 22.6181 59.7337 21.6561 59.2149 20.8136C58.696 19.971 58.0386 19.2659 57.2835 18.7421C56.8809 18.4563 56.4782 18.1414 56.0312 17.8168C55.5842 17.4923 54.9923 17.0902 54.4729 16.6542C54.2903 16.5024 54.1131 16.3409 53.9413 16.1698V28.7165C53.9413 28.8583 53.8948 28.9943 53.8118 29.095C53.7289 29.1957 53.6162 29.2529 53.4984 29.2542H51.3199C51.2021 29.2529 51.0894 29.1957 51.0064 29.095C50.9235 28.9943 50.8769 28.8583 50.877 28.7165V9.44104C50.877 9.29843 50.924 9.16166 51.0079 9.06081C51.0917 8.95997 51.2054 8.90332 51.3239 8.90332H53.4782C53.5832 8.90506 53.6842 8.95115 53.7637 9.03352C53.8432 9.11589 53.8961 9.22928 53.9131 9.35384C54.0339 10.2936 54.493 12.4881 56.1721 13.7137C56.6151 14.0286 57.054 14.3822 57.5372 14.7262C58.0204 15.0701 58.4916 15.385 58.9506 15.7725C59.888 16.5223 60.7269 17.4367 61.4391 18.4853C61.4795 18.5468 61.5309 18.5965 61.5894 18.6307C61.648 18.6648 61.7123 18.6826 61.7774 18.6826C61.8425 18.6826 61.9068 18.6648 61.9653 18.6307C62.0239 18.5965 62.0753 18.5468 62.1156 18.4853C62.8264 17.4353 63.6639 16.5193 64.6002 15.7677C65.0793 15.3801 65.5787 15.0314 66.0176 14.7213C66.4565 14.4113 66.9478 14.0286 67.3786 13.7137C69.0618 12.5075 69.5209 10.3227 69.6417 9.35384C69.6587 9.22928 69.7116 9.11589 69.7911 9.03352C69.8706 8.95115 69.9716 8.90506 70.0766 8.90332H72.2268Z" fill="#3A3845"/>
<path d="M95.4613 19.0788C95.4613 24.6849 91.0184 29.2542 85.5537 29.2542C80.0889 29.2542 75.646 24.6898 75.646 19.0788C75.646 13.4677 80.0889 8.90332 85.5537 8.90332C91.0184 8.90332 95.4613 13.4677 95.4613 19.0788ZM85.5537 12.6004C81.8097 12.6004 78.7646 15.5077 78.7646 19.0788C78.7646 22.6499 81.8097 25.5329 85.5537 25.5329C89.2976 25.5329 92.3468 22.6256 92.3468 19.0594C92.3468 15.4931 89.2976 12.6004 85.5537 12.6004Z" fill="#3A3845"/>
<path d="M118.249 19.0788C118.249 24.6849 113.584 29.2542 107.846 29.2542C102.108 29.2542 97.4429 24.6898 97.4429 19.0788C97.4429 13.4677 102.108 8.90332 107.846 8.90332C113.584 8.90332 118.249 13.4677 118.249 19.0788ZM107.846 12.6004C103.915 12.6004 100.713 15.5077 100.713 19.0788C100.713 22.6499 103.915 25.5329 107.846 25.5329C111.777 25.5329 114.974 22.6256 114.974 19.0594C114.974 15.4931 111.764 12.6004 107.846 12.6004Z" fill="#3A3845"/>
<path d="M135.978 18.9285V9.43632C135.978 9.36632 135.99 9.29702 136.012 9.23235C136.035 9.16768 136.067 9.10893 136.108 9.05943C136.15 9.00994 136.199 8.97068 136.253 8.94389C136.306 8.91711 136.364 8.90332 136.423 8.90332H138.611C138.669 8.90332 138.727 8.91711 138.781 8.94389C138.835 8.97068 138.884 9.00994 138.925 9.05943C138.966 9.10893 138.999 9.16768 139.021 9.23235C139.043 9.29702 139.055 9.36632 139.055 9.43632V28.7212C139.055 28.7912 139.043 28.8605 139.021 28.9252C138.999 28.9898 138.966 29.0486 138.925 29.0981C138.884 29.1476 138.835 29.1868 138.781 29.2136C138.727 29.2404 138.669 29.2542 138.611 29.2542H136.443C136.384 29.2542 136.327 29.2404 136.273 29.2136C136.219 29.1868 136.17 29.1476 136.129 29.0981C136.087 29.0486 136.055 28.9898 136.032 28.9252C136.01 28.8605 135.999 28.7912 135.999 28.7212V27.2046C136.001 26.7298 135.912 26.2607 135.74 25.8333C135.098 24.2731 133.439 21.3852 129.563 19.6166C127.925 18.8904 126.392 17.8639 125.016 16.5737C124.952 16.5099 124.873 16.4698 124.79 16.458C124.706 16.4462 124.622 16.4631 124.546 16.5069C124.471 16.5507 124.407 16.6195 124.363 16.7051C124.319 16.7908 124.297 16.8897 124.298 16.9904V28.7212C124.298 28.8626 124.251 28.9981 124.168 29.0981C124.084 29.198 123.971 29.2542 123.854 29.2542H121.665C121.548 29.2542 121.435 29.198 121.351 29.0981C121.268 28.9981 121.221 28.8626 121.221 28.7212V9.43632C121.221 9.29496 121.268 9.15939 121.351 9.05943C121.435 8.95948 121.548 8.90332 121.665 8.90332H123.793C123.881 8.90543 123.967 8.93937 124.039 9.00072C124.111 9.06208 124.166 9.14801 124.197 9.24735C124.548 10.3909 126.01 14.0928 130.633 16.157C132.306 16.8912 133.861 17.9647 135.231 19.3307C135.296 19.3975 135.375 19.4408 135.459 19.4553C135.543 19.4699 135.629 19.4551 135.706 19.4127C135.784 19.3704 135.849 19.3022 135.896 19.2164C135.942 19.1305 135.966 19.0306 135.966 18.9285H135.978Z" fill="#3A3845"/>
<path d="M142.027 27.2192C142.027 26.8164 142.115 26.4228 142.278 26.088C142.442 25.7532 142.674 25.4924 142.946 25.3385C143.217 25.1846 143.516 25.1446 143.805 25.2236C144.093 25.3025 144.358 25.4968 144.566 25.7819C144.773 26.067 144.915 26.4301 144.972 26.8252C145.028 27.2203 144.999 27.6296 144.885 28.0014C144.772 28.3732 144.581 28.6907 144.337 28.9137C144.092 29.1367 143.804 29.2552 143.51 29.2543C143.315 29.2543 143.122 29.2016 142.942 29.0992C142.762 28.9969 142.598 28.8469 142.46 28.6579C142.323 28.4688 142.213 28.2445 142.139 27.9976C142.065 27.7507 142.027 27.4862 142.027 27.2192Z" fill="#3A3845"/>
</svg>
