<svg width="20" height="20" viewBox="0 0 20 20" fill="none" xmlns="http://www.w3.org/2000/svg">
<path d="M4.98388 4.54098H18.5578L16.6253 12.7538C16.3744 13.8201 15.4229 14.5738 14.3274 14.5738H9.45677C8.38561 14.5738 7.44875 13.8526 7.17466 12.8172L4.98388 4.54098ZM4.98388 4.54098L4.09863 1H1.44287" stroke="#595667" stroke-width="1.5" stroke-linecap="round" stroke-linejoin="round"/>
<path d="M7.64079 18.9998C8.29267 18.9998 8.82112 18.4714 8.82112 17.8195C8.82112 17.1676 8.29267 16.6392 7.64079 16.6392C6.9889 16.6392 6.46045 17.1676 6.46045 17.8195C6.46045 18.4714 6.9889 18.9998 7.64079 18.9998Z" fill="#595667"/>
<path d="M15.9035 18.9998C16.5554 18.9998 17.0838 18.4714 17.0838 17.8195C17.0838 17.1676 16.5554 16.6392 15.9035 16.6392C15.2516 16.6392 14.7231 17.1676 14.7231 17.8195C14.7231 18.4714 15.2516 18.9998 15.9035 18.9998Z" fill="#595667"/>
</svg>
